<svg xmlns="http://www.w3.org/2000/svg" viewBox="0 0 48 48"><defs><style>.cls-1{fill:#201602;}</style></defs><title>Asset 56ldpi</title><g id="Layer_2" data-name="Layer 2"><g id="layer_1-2" data-name="layer 1"><path class="cls-1" d="M24,48A24,24,0,1,1,48,24,24,24,0,0,1,24,48ZM24,2A22,22,0,1,0,46,24,22,22,0,0,0,24,2Z"/><path class="cls-1" d="M24,40A16,16,0,1,1,40,24,16,16,0,0,1,24,40Zm0-30A14,14,0,1,0,38,24,14,14,0,0,0,24,10Z"/><rect class="cls-1" x="4" y="23" width="2" height="2"/><rect class="cls-1" x="42" y="23" width="2" height="2"/><rect class="cls-1" x="33" y="7" width="2" height="2"/><rect class="cls-1" x="23" y="4" width="2" height="2"/><rect class="cls-1" x="23" y="42" width="2" height="2"/><rect class="cls-1" x="13" y="7" width="2" height="2"/><rect class="cls-1" x="33" y="39" width="2" height="2"/><rect class="cls-1" x="13" y="39" width="2" height="2"/><rect class="cls-1" x="6" y="14" width="2" height="2"/><rect class="cls-1" x="6" y="32" width="2" height="2"/><rect class="cls-1" x="40" y="14" width="2" height="2"/><rect class="cls-1" x="40" y="32" width="2" height="2"/><path class="cls-1" d="M25,27H20a1,1,0,0,1-1-1V16a1,1,0,0,1,1-1h5a6,6,0,0,1,0,12Zm-4-2h4a4,4,0,0,0,0-8H21Z"/><rect class="cls-1" x="19" y="26" width="2" height="8"/><rect class="cls-1" x="16" y="29" width="8" height="2"/><rect class="cls-1" x="16" y="25" width="8" height="2"/></g></g></svg>